<?xml version="1.0" encoding="UTF-8" standalone="no"?>
<!-- Created with Inkscape (http://www.inkscape.org/) -->

<svg
   width="512"
   height="512"
   viewBox="0 0 512 512"
   version="1.1"
   id="svg1"
   xml:space="preserve"
   inkscape:version="1.4.3 (0d15f75, 2025-12-25)"
   sodipodi:docname="icon.svg"
   inkscape:export-filename="icon-256.png"
   inkscape:export-xdpi="48"
   inkscape:export-ydpi="48"
   xmlns:inkscape="http://www.inkscape.org/namespaces/inkscape"
   xmlns:sodipodi="http://sodipodi.sourceforge.net/DTD/sodipodi-0.dtd"
   xmlns="http://www.w3.org/2000/svg"
   xmlns:svg="http://www.w3.org/2000/svg"><sodipodi:namedview
     id="namedview1"
     pagecolor="#ffffff"
     bordercolor="#000000"
     borderopacity="0.25"
     inkscape:showpageshadow="2"
     inkscape:pageopacity="0.0"
     inkscape:pagecheckerboard="0"
     inkscape:deskcolor="#d1d1d1"
     inkscape:document-units="px"
     inkscape:zoom="0.87827369"
     inkscape:cx="239.67472"
     inkscape:cy="175.91327"
     inkscape:window-width="1470"
     inkscape:window-height="790"
     inkscape:window-x="0"
     inkscape:window-y="38"
     inkscape:window-maximized="1"
     inkscape:current-layer="layer1" /><defs
     id="defs1" /><g
     inkscape:label="Layer 1"
     inkscape:groupmode="layer"
     id="layer1"><rect
       style="fill:#333333;stroke-width:0"
       id="rect2"
       width="416.00208"
       height="416.00208"
       x="47.998962"
       y="47.998962"
       rx="78.000389"
       ry="78.000389" /><g
       id="g1"
       transform="translate(-0.254627,2.32535)"><path
         d="M 199.12329,272.62143 H 151.28568 V 212.8244 L 93.991774,91.83973 h 51.175136 l 15.01878,39.49384 c 2.41043,6.86043 4.8672,13.62816 7.37033,20.30319 2.50314,6.67502 4.95991,13.62816 7.37034,20.85942 h 1.1125 c 2.59584,-7.23126 5.19168,-14.1844 7.78752,-20.85942 2.59585,-6.67503 5.09897,-13.44276 7.5094,-20.30319 l 15.01879,-39.49384 h 50.06262 l -57.2939,120.98467 z m 166.87544,0 H 318.1611 V 131.88982 H 266.15159 V 91.83973 h 151.85664 v 40.05009 h -52.0095 z"
         vector-effect="non-scaling-stroke"
         id="path1"
         style="font-size:12px;fill:#ececec;fill-rule:evenodd;stroke:#000000;stroke-width:0;stroke-linecap:round"
         sodipodi:nodetypes="ccccccsccscccccccccccccc" /><path
         d="m 265.2581,415.50957 h -24.55319 v -35.64171 h -34.45366 v -23.76115 h 34.45366 V 320.465 h 24.55319 v 35.64171 h 34.45366 v 23.76115 H 265.2581 Z m 118.80572,0 h -24.55319 v -35.64171 h -34.45365 v -23.76115 h 34.45365 V 320.465 h 24.55319 v 35.64171 h 34.45366 v 23.76115 h -34.45366 z"
         style="font-size:12px;vector-effect:non-scaling-stroke;fill:#ff0000;fill-rule:evenodd;stroke:#000000;stroke-width:0;stroke-linecap:round"
         id="path1-2" /></g></g></svg>
